<svg width="70" height="20" viewBox="0 0 70 20" fill="none" xmlns="http://www.w3.org/2000/svg">
<path d="M13.1662 19.2897H12.1134V0.712214H15.7828V19.2897H13.1662Z" fill="#04289C"/>
<path d="M1.05283 19.2897H-7.62939e-06V0.712214H3.66943V19.2897H1.05283Z" fill="#04289C"/>
<path d="M19.3749 11.3877V8.29495H31.167V11.3877H19.3749ZM19.3749 18.6917V15.3474H32.2973V18.6917H19.3749ZM19.3865 4.66421V1.37991H32.3089V4.66421H19.3865Z" fill="#04289C"/>
<path d="M44.8558 20C43.4391 20 42.1192 19.7426 40.898 19.2278C39.6749 18.713 38.6027 17.995 37.6834 17.0757C36.7641 16.1564 36.0461 15.09 35.5313 13.8765C35.0164 12.6631 34.759 11.3567 34.759 9.95936C34.759 8.56203 35.0164 7.25953 35.5313 6.05574C36.0461 4.85195 36.7583 3.78943 37.6698 2.87014C38.5794 1.95084 39.642 1.2425 40.8554 0.745113C42.0689 0.249661 43.383 0 44.7997 0C46.2338 0 47.5576 0.247726 48.771 0.745113C49.9845 1.2425 51.047 1.95084 51.9566 2.87014C52.8663 3.78943 53.5785 4.85582 54.0952 6.06929C54.61 7.28276 54.8674 8.58912 54.8674 9.98645C54.8674 11.3838 54.61 12.6901 54.0952 13.9036C53.5804 15.1171 52.8721 16.1835 51.9702 17.1028C51.0683 18.0221 50.0077 18.7343 48.7846 19.2413C47.5634 19.7465 46.2531 20 44.8558 20ZM44.7997 16.5241C46.0306 16.5241 47.1124 16.2473 48.0414 15.6958C48.9704 15.1442 49.6923 14.3758 50.2071 13.3927C50.7219 12.4095 50.9793 11.2638 50.9793 9.95936C50.9793 9.00329 50.8322 8.12851 50.538 7.33888C50.2439 6.54925 49.82 5.8622 49.2684 5.28353C48.7169 4.70486 48.0685 4.25779 47.3234 3.9462C46.5783 3.6346 45.7364 3.47784 44.7997 3.47784C43.5862 3.47784 42.5198 3.74879 41.6005 4.29263C40.6812 4.83453 39.9594 5.59319 39.4349 6.56861C38.9104 7.54403 38.6491 8.67428 38.6491 9.96129C38.6491 10.9367 38.7962 11.827 39.0904 12.636C39.3846 13.4449 39.8026 14.1359 40.3464 14.7049C40.8883 15.2758 41.5425 15.7209 42.305 16.0422C43.0675 16.3635 43.8998 16.5241 44.7997 16.5241Z" fill="url(#paint0_linear_4_14)"/>
<path d="M55.9938 16.6363C56.7834 15.8467 57.5692 15.061 58.3549 14.2752C58.5291 14.4687 58.6956 14.6681 58.8775 14.8539C59.8181 15.8235 60.9386 16.4293 62.305 16.5318C63.0385 16.586 63.7681 16.5899 64.4765 16.3635C64.7378 16.2802 64.9952 16.1661 65.2274 16.0228C65.9512 15.5777 66.2067 14.9061 66.1215 14.0797C66.0461 13.3366 65.6164 12.8353 65.0281 12.4366C64.5423 12.1057 64.0004 11.8889 63.4546 11.6857C62.7308 11.4167 61.9992 11.1728 61.2754 10.9038C60.4045 10.5806 59.582 10.1645 58.8601 9.57229C57.9679 8.84072 57.4415 7.90207 57.2847 6.75827C57.1724 5.94155 57.1724 5.12677 57.364 4.31972C57.6892 2.95529 58.504 1.95665 59.6884 1.24637C60.5225 0.747049 61.4341 0.472228 62.396 0.352235C63.534 0.210954 64.6642 0.253532 65.777 0.53803C67.0234 0.857364 68.1324 1.44184 69.0846 2.31082C69.2665 2.47726 69.431 2.65918 69.5955 2.82756C68.7962 3.62686 68.0066 4.41649 67.215 5.20999C66.8802 4.84807 66.5086 4.51132 66.0906 4.22489C65.3571 3.7217 64.5423 3.47978 63.6559 3.46816C63.1024 3.46042 62.5585 3.503 62.036 3.70234C61.6141 3.86491 61.2522 4.10683 61.0044 4.50165C60.6541 5.05903 60.6638 6.16218 61.3393 6.74279C61.8173 7.15309 62.3573 7.45307 62.9379 7.67757C63.6733 7.964 64.4223 8.22141 65.1616 8.50203C65.9628 8.80395 66.7467 9.1407 67.4647 9.6168C68.3472 10.2013 69.0052 10.9638 69.3826 11.9566C69.6129 12.5624 69.7 13.1933 69.7194 13.8378C69.7426 14.6274 69.6613 15.4035 69.3826 16.1506C68.9375 17.3447 68.113 18.2059 67.0157 18.8194C66.2531 19.2452 65.4287 19.4871 64.5694 19.6226C63.6288 19.7697 62.6843 19.7871 61.7379 19.7116C59.7871 19.5549 58.1053 18.8039 56.7118 17.424C56.4854 17.1995 56.2764 16.9615 56.0596 16.7292C56.0383 16.6963 56.017 16.6654 55.9938 16.6363Z" fill="#04289C"/>
<path d="M12.1134 19.2897L-7.62939e-06 0.712214H3.66943L15.7828 19.2897H12.1134Z" fill="url(#paint1_linear_4_14)"/>
<defs>
<linearGradient id="paint0_linear_4_14" x1="53.782" y1="10.0007" x2="35.9348" y2="10.0007" gradientUnits="userSpaceOnUse">
<stop stop-color="#1950F0"/>
<stop offset="1" stop-color="#0082FA"/>
</linearGradient>
<linearGradient id="paint1_linear_4_14" x1="0.423507" y1="-1.9298" x2="12.6265" y2="17.564" gradientUnits="userSpaceOnUse">
<stop stop-color="#1950F0"/>
<stop offset="1" stop-color="#0082FA"/>
</linearGradient>
</defs>
</svg>
